<?xml version="1.0" encoding="utf-8"?>
<!-- Generator: Adobe Illustrator 19.0.0, SVG Export Plug-In . SVG Version: 6.00 Build 0)  -->
<svg version="1.1" id="Layer_1" xmlns="http://www.w3.org/2000/svg" xmlns:xlink="http://www.w3.org/1999/xlink" x="0px" y="0px"
	 viewBox="0 0 960 560" style="enable-background:new 0 0 960 560;" xml:space="preserve">
<style type="text/css">
	.st0{fill:url(#SVGID_1_);}
	.st1{clip-path:url(#SVGID_3_);fill:url(#SVGID_4_);}
</style>
<linearGradient id="SVGID_1_" gradientUnits="userSpaceOnUse" x1="94.0128" y1="56.433" x2="-96.0128" y2="385.567">
	<stop  offset="0" style="stop-color:#04E900"/>
	<stop  offset="0.1581" style="stop-color:#05E000"/>
	<stop  offset="0.421" style="stop-color:#07C600"/>
	<stop  offset="0.754" style="stop-color:#0C9D00"/>
	<stop  offset="0.9944" style="stop-color:#0F7B00"/>
</linearGradient>
<path class="st0" d="M-2,1c0.7,146.7,1.3,293.3,2,440"/>
<g>
	<defs>
		<rect id="SVGID_2_" x="-2" y="1" width="962" height="559"/>
	</defs>
	<clipPath id="SVGID_3_">
		<use xlink:href="#SVGID_2_"  style="overflow:visible;"/>
	</clipPath>
	<linearGradient id="SVGID_4_" gradientUnits="userSpaceOnUse" x1="686.7719" y1="-202.749" x2="227.5298" y2="592.6813">
		<stop  offset="0" style="stop-color:#04E900"/>
		<stop  offset="0.1581" style="stop-color:#05E000"/>
		<stop  offset="0.421" style="stop-color:#07C600"/>
		<stop  offset="0.754" style="stop-color:#0C9D00"/>
		<stop  offset="0.9944" style="stop-color:#0F7B00"/>
	</linearGradient>
	<path class="st1" d="M-1-3c-101.2,144.1-101.9,383,1,463c63.5,49.4,116.2-1,318,9c245.5,12.1,297.2,93.1,430,47
		c140.6-48.8,203-181.4,211-199c45.1-99.7,48.6-226.4,1-314C822.5-249.8,198.6-287.2-1-3z"/>
</g>
</svg>
