<?xml version="1.0" standalone="no"?>
<!DOCTYPE svg PUBLIC "-//W3C//DTD SVG 20010904//EN"
 "http://www.w3.org/TR/2001/REC-SVG-20010904/DTD/svg10.dtd">
<svg version="1.0" xmlns="http://www.w3.org/2000/svg"
 width="260.000000pt" height="260.000000pt" viewBox="0 0 260.000000 260.000000"
 preserveAspectRatio="xMidYMid meet">
<metadata>
Created by potrace 1.11, written by Peter Selinger 2001-2013
</metadata>
<g transform="translate(0.000000,260.000000) scale(0.100000,-0.100000)"
fill="#000000" stroke="none">
<path d="M169 2431 l-29 -29 0 -1110 c0 -1107 0 -1109 21 -1136 l20 -26 1128
0 c1080 0 1129 1 1144 18 16 17 17 111 17 1145 l0 1126 -26 20 c-27 21 -29 21
-1136 21 l-1110 0 -29 -29z m885 -233 c14 -19 16 -68 16 -333 l0 -311 103 4
c120 5 189 -7 274 -47 117 -56 219 -194 260 -351 22 -88 22 -264 -1 -350 -42
-155 -156 -302 -286 -368 -173 -86 -436 -79 -497 14 -20 31 -23 121 -39 1200
l-7 512 26 26 c22 22 35 26 81 26 45 0 58 -4 70 -22z"/>
<path d="M1120 1359 l-35 -10 3 -372 c3 -327 6 -374 20 -385 9 -7 44 -12 83
-12 140 0 288 112 330 251 28 91 23 225 -10 311 -59 154 -248 258 -391 217z"/>
</g>
</svg>
